# Created by FreeCAD <http://www.freecadweb.org>
v -1.460514 21.798496 18.302397
v -1.258510 21.088528 17.302397
v -1.258510 21.088528 18.302397
v -0.929490 20.427765 17.302397
v -0.929490 20.427765 18.302397
v -0.484657 19.838711 17.302397
v -0.484657 19.838711 18.302397
v 6.471378 22.533493 17.302397
v 6.403271 23.268492 17.302397
v 6.471378 22.533493 18.302397
v 6.403271 23.268492 18.302397
v 0.060840 19.341425 17.302397
v 0.060840 19.341425 18.302397
v 6.201267 23.978460 17.302397
v 6.201267 23.978460 18.302397
v 0.688425 18.952841 17.302397
v 0.688425 18.952841 18.302397
v 5.872247 24.639223 17.302397
v 5.872247 24.639223 18.302397
v 1.376727 18.686192 17.302397
v 1.376727 18.686192 18.302397
v 5.427414 25.228277 17.302397
v 5.427414 25.228277 18.302397
v 2.102305 18.550556 17.302397
v 2.102305 18.550556 18.302397
v 4.881917 25.725563 17.302397
v 4.881917 25.725563 18.302397
v 2.840452 18.550556 17.302397
v 2.840452 18.550556 18.302397
v 4.254332 26.114147 17.302397
v 4.254332 26.114147 18.302397
v 3.566031 18.686192 17.302397
v 3.566031 18.686192 18.302397
v 3.566031 26.380796 17.302397
v 3.566031 26.380796 18.302397
v 4.254332 18.952841 17.302397
v 4.254332 18.952841 18.302397
v 2.840452 26.516430 17.302397
v 2.840452 26.516430 18.302397
v 4.881917 19.341425 17.302397
v 4.881917 19.341425 18.302397
v 2.102305 26.516430 17.302397
v 2.102305 26.516430 18.302397
v 5.427414 19.838711 17.302397
v 5.427414 19.838711 18.302397
v 1.376727 26.380796 17.302397
v 1.376727 26.380796 18.302397
v 5.872247 20.427765 17.302397
v 5.872247 20.427765 18.302397
v 0.688425 26.114147 17.302397
v 0.688425 26.114147 18.302397
v 6.201267 21.088528 17.302397
v 6.201267 21.088528 18.302397
v 0.060840 25.725563 17.302397
v 0.060840 25.725563 18.302397
v 6.403271 21.798496 17.302397
v 6.403271 21.798496 18.302397
v -0.484657 25.228277 17.302397
v -0.484657 25.228277 18.302397
v -0.929490 24.639223 17.302397
v -0.929490 24.639223 18.302397
v -1.258510 23.978460 17.302397
v -1.258510 23.978460 18.302397
v -1.460514 23.268492 17.302397
v -1.460514 23.268492 18.302397
v -1.528621 22.533493 17.302397
v -1.528621 22.533493 18.302397
v -1.460514 21.798496 17.302397
v 2.784964 25.517059 18.302397
v 5.212015 23.753704 18.302397
v 5.405821 23.157228 18.302397
v 4.478770 20.304060 18.302397
v 3.971379 19.935417 18.302397
v 3.398429 25.386663 18.302397
v 3.971379 25.131571 18.302397
v 4.898429 24.296850 18.302397
v 0.463987 24.762928 18.302397
v 0.044328 24.296850 18.302397
v 4.478770 24.762928 18.302397
v 4.898429 20.770138 18.302397
v 0.971379 25.131571 18.302397
v 0.463987 20.304060 18.302397
v 5.212015 21.313284 18.302397
v 0.044328 20.770138 18.302397
v 0.971379 19.935417 18.302397
v 1.544327 25.386663 18.302397
v -0.269258 21.313284 18.302397
v 5.405821 21.909760 18.302397
v 1.544327 19.680325 18.302397
v 2.157793 25.517059 18.302397
v -0.463064 21.909760 18.302397
v 2.157793 19.549929 18.302397
v 5.471378 22.533493 18.302397
v -0.528621 22.533493 18.302397
v 2.784964 19.549929 18.302397
v -0.463064 23.157228 18.302397
v 3.398429 19.680325 18.302397
v -0.269258 23.753704 18.302397
v 0.044328 20.770138 21.802397
v 0.463987 20.304060 21.802397
v 0.971379 19.935417 21.802397
v 1.544327 19.680325 21.802397
v 5.471378 22.533493 21.802397
v 5.405821 23.157228 21.802397
v 2.157793 19.549929 21.802397
v 5.212015 23.753704 21.802397
v 2.784964 19.549929 21.802397
v 4.898429 24.296850 21.802397
v 3.398429 19.680325 21.802397
v 4.478770 24.762928 21.802397
v 3.971379 19.935417 21.802397
v 3.971379 25.131571 21.802397
v 4.478770 20.304060 21.802397
v 3.398429 25.386663 21.802397
v 4.898429 20.770138 21.802397
v 2.784964 25.517059 21.802397
v 5.212015 21.313284 21.802397
v 2.157793 25.517059 21.802397
v 5.405821 21.909760 21.802397
v 1.544327 25.386663 21.802397
v 0.971379 25.131571 21.802397
v 0.463987 24.762928 21.802397
v 0.044328 24.296850 21.802397
v -0.269258 23.753704 21.802397
v -0.463064 23.157228 21.802397
v -0.528621 22.533493 21.802397
v -0.463064 21.909760 21.802397
v -0.269258 21.313284 21.802397
vn -0.961826 -0.273663 0.000000
vn -0.895164 -0.445738 0.000000
vn -0.895164 -0.445738 0.000000
vn -0.798017 -0.602634 0.000000
vn -0.798017 -0.602634 0.000000
vn 0.995734 0.092268 -0.000000
vn 0.995734 0.092268 0.000000
vn -0.673695 -0.739009 0.000000
vn -0.673695 -0.739009 0.000000
vn 0.961826 0.273663 0.000000
vn 0.961826 0.273663 -0.000000
vn -0.526432 -0.850217 0.000000
vn -0.526432 -0.850217 0.000000
vn 0.895164 0.445738 0.000000
vn 0.895164 0.445738 -0.000000
vn -0.361242 -0.932472 0.000000
vn -0.361242 -0.932472 0.000000
vn 0.798017 0.602634 0.000000
vn 0.798017 0.602634 -0.000000
vn -0.183751 -0.982973 0.000000
vn -0.183751 -0.982973 0.000000
vn 0.673695 0.739009 0.000000
vn 0.673695 0.739009 -0.000000
vn 0.000000 -1.000000 0.000000
vn 0.000000 -1.000000 0.000000
vn 0.526432 0.850217 0.000000
vn 0.526432 0.850217 -0.000000
vn 0.183751 -0.982973 0.000000
vn 0.183751 -0.982973 0.000000
vn 0.361241 0.932472 -0.000000
vn 0.361241 0.932472 0.000000
vn 0.361241 -0.932472 0.000000
vn 0.361241 -0.932472 0.000000
vn 0.183749 0.982973 -0.000000
vn 0.183749 0.982973 0.000000
vn 0.526432 -0.850217 0.000000
vn 0.526432 -0.850217 0.000000
vn 0.000000 1.000000 -0.000000
vn 0.000000 1.000000 0.000000
vn 0.673695 -0.739009 0.000000
vn 0.673695 -0.739009 0.000000
vn -0.183749 0.982973 0.000000
vn -0.183749 0.982973 0.000000
vn 0.798017 -0.602634 0.000000
vn 0.798017 -0.602634 0.000000
vn -0.361242 0.932472 0.000000
vn -0.361242 0.932472 0.000000
vn 0.895164 -0.445738 0.000000
vn 0.895164 -0.445738 0.000000
vn -0.526432 0.850217 0.000000
vn -0.526432 0.850217 0.000000
vn 0.961826 -0.273663 0.000000
vn 0.961826 -0.273663 0.000000
vn 0.995734 -0.092269 0.000000
vn -0.673695 0.739009 0.000000
vn -0.673695 0.739009 0.000000
vn 0.995734 -0.092269 0.000000
vn -0.798017 0.602634 0.000000
vn -0.798017 0.602634 0.000000
vn -0.895164 0.445738 0.000000
vn -0.895164 0.445738 0.000000
vn -0.961826 0.273663 0.000000
vn -0.961826 0.273663 0.000000
vn -0.995734 0.092268 0.000000
vn -0.995734 0.092268 0.000000
vn -0.995734 -0.092269 0.000000
vn -0.995734 -0.092269 0.000000
vn -0.961826 -0.273663 0.000000
vn -0.000000 -0.000000 -1.000000
vn -0.000000 -0.000000 -1.000000
vn 0.000000 0.000000 -1.000000
vn 0.000000 0.000000 -1.000000
vn 0.000000 -0.000000 -1.000000
vn 0.000000 0.000000 -1.000000
vn 0.000000 -0.000000 -1.000000
vn -0.000000 -0.000000 -1.000000
vn 0.000000 0.000000 -1.000000
vn 0.000000 0.000000 -1.000000
vn 0.000000 0.000000 -1.000000
vn 0.000000 0.000000 -1.000000
vn 0.000000 0.000000 -1.000000
vn 0.000000 0.000000 -1.000000
vn 0.000000 0.000000 -1.000000
vn 0.000000 0.000000 -1.000000
vn 0.000000 0.000000 -1.000000
vn 0.000000 -0.000000 -1.000000
vn 0.000000 -0.000000 -1.000000
vn 0.000000 -0.000000 -1.000000
vn 0.000000 0.000000 -1.000000
vn 0.000000 0.000000 -1.000000
vn 0.000000 0.000000 -1.000000
vn 0.000000 0.000000 -1.000000
vn 0.000000 0.000000 -1.000000
vn 0.000000 0.000000 -1.000000
vn 0.000000 -0.000000 -1.000000
vn 0.000000 -0.000000 -1.000000
vn 0.000000 -0.000000 -1.000000
vn 0.000000 0.000000 -1.000000
vn 0.000000 0.000000 -1.000000
vn 0.000000 0.000000 -1.000000
vn 0.000000 0.000000 1.000000
vn 0.000000 0.000000 1.000000
vn 0.000000 0.000000 1.000000
vn 0.000000 0.000000 1.000000
vn 0.000000 0.000000 1.000000
vn 0.000000 0.000000 1.000000
vn 0.000000 0.000000 1.000000
vn 0.000000 0.000000 1.000000
vn 0.000000 0.000000 1.000000
vn 0.000000 0.000000 1.000000
vn 0.000000 0.000000 1.000000
vn 0.000000 0.000000 1.000000
vn 0.000000 0.000000 1.000000
vn 0.000000 0.000000 1.000000
vn 0.000000 0.000000 1.000000
vn 0.000000 0.000000 1.000000
vn 0.000000 0.000000 1.000000
vn 0.000000 0.000000 1.000000
vn 0.000000 0.000000 1.000000
vn 0.000000 0.000000 1.000000
vn 0.000000 0.000000 1.000000
vn 0.000000 0.000000 1.000000
vn 0.000000 0.000000 1.000000
vn 0.000000 0.000000 1.000000
vn 0.000000 0.000000 1.000000
vn 0.000000 0.000000 1.000000
vn 0.000000 0.000000 1.000000
vn 0.000000 0.000000 1.000000
vn 0.000000 0.000000 1.000000
vn 0.000000 0.000000 1.000000
vn 0.000000 0.000000 1.000000
vn 0.000000 0.000000 1.000000
vn 0.000000 0.000000 1.000000
vn 0.000000 0.000000 1.000000
vn 0.000000 0.000000 1.000000
vn 0.000000 0.000000 1.000000
vn 0.000000 0.000000 1.000000
vn 0.000000 0.000000 1.000000
vn 0.000000 0.000000 1.000000
vn 0.000000 0.000000 1.000000
vn 0.000000 0.000000 1.000000
vn 0.000000 0.000000 1.000000
vn 0.000000 0.000000 1.000000
vn 0.000000 0.000000 1.000000
vn 0.000000 0.000000 1.000000
vn 0.000000 0.000000 1.000000
vn 0.000000 0.000000 1.000000
vn 0.000000 0.000000 1.000000
vn 0.000000 0.000000 1.000000
vn 0.000000 0.000000 1.000000
vn 0.000000 0.000000 1.000000
vn 0.000000 0.000000 1.000000
vn 0.000000 0.000000 1.000000
vn 0.000000 0.000000 1.000000
vn 0.000000 0.000000 1.000000
vn 0.000000 0.000000 1.000000
vn 0.000000 0.000000 1.000000
vn 0.000000 0.000000 1.000000
vn 0.000000 0.000000 1.000000
vn 0.000000 0.000000 1.000000
vn 0.000000 0.000000 1.000000
vn 0.000000 0.000000 1.000000
vn 0.000000 0.000000 1.000000
vn 0.000000 0.000000 1.000000
vn -0.743144 -0.669131 0.000000
vn -0.587786 -0.809016 0.000000
vn -0.587786 -0.809016 0.000000
vn -0.406736 -0.913546 0.000000
vn -0.406736 -0.913546 0.000000
vn 0.994522 0.104528 -0.000000
vn 0.994522 0.104528 0.000000
vn -0.207911 -0.978148 0.000000
vn -0.207911 -0.978148 0.000000
vn 0.951056 0.309017 0.000000
vn 0.951056 0.309017 -0.000000
vn 0.000000 -1.000000 0.000000
vn 0.000000 -1.000000 0.000000
vn 0.866026 0.500000 0.000000
vn 0.866026 0.500000 -0.000000
vn 0.207911 -0.978148 0.000000
vn 0.207911 -0.978148 0.000000
vn 0.743144 0.669131 0.000000
vn 0.743144 0.669131 -0.000000
vn 0.406736 -0.913546 0.000000
vn 0.406736 -0.913546 0.000000
vn 0.587786 0.809016 0.000000
vn 0.587786 0.809016 -0.000000
vn 0.587786 -0.809016 0.000000
vn 0.406736 0.913546 0.000000
vn 0.587786 -0.809016 0.000000
vn 0.406736 0.913546 -0.000000
vn 0.743144 -0.669131 0.000000
vn 0.207911 0.978148 0.000000
vn 0.743144 -0.669131 0.000000
vn 0.207911 0.978148 -0.000000
vn 0.866026 -0.500000 0.000000
vn 0.866026 -0.500000 0.000000
vn 0.000000 1.000000 0.000000
vn 0.000000 1.000000 -0.000000
vn 0.951056 -0.309017 0.000000
vn 0.951056 -0.309017 0.000000
vn -0.207911 0.978148 0.000000
vn 0.994522 -0.104528 0.000000
vn -0.207911 0.978148 0.000000
vn 0.994522 -0.104528 0.000000
vn -0.406736 0.913546 0.000000
vn -0.406736 0.913546 0.000000
vn -0.587786 0.809016 0.000000
vn -0.587786 0.809016 0.000000
vn -0.743144 0.669131 0.000000
vn -0.743144 0.669131 0.000000
vn -0.866026 0.500000 0.000000
vn -0.866026 0.500000 0.000000
vn -0.951057 0.309017 0.000000
vn -0.951057 0.309017 0.000000
vn -0.994522 0.104528 0.000000
vn -0.994522 0.104528 0.000000
vn -0.994522 -0.104529 0.000000
vn -0.994522 -0.104529 0.000000
vn -0.951057 -0.309017 0.000000
vn -0.951057 -0.309017 0.000000
vn -0.866026 -0.500000 0.000000
vn -0.866026 -0.500000 0.000000
vn -0.743144 -0.669131 0.000000
vn 0.000000 0.000000 1.000000
vn 0.000000 0.000000 1.000000
vn 0.000000 0.000000 1.000000
vn 0.000000 0.000000 1.000000
vn 0.000000 0.000000 1.000000
vn 0.000000 0.000000 1.000000
vn 0.000000 0.000000 1.000000
vn 0.000000 0.000000 1.000000
vn 0.000000 0.000000 1.000000
vn 0.000000 0.000000 1.000000
vn 0.000000 0.000000 1.000000
vn 0.000000 0.000000 1.000000
vn 0.000000 0.000000 1.000000
vn 0.000000 0.000000 1.000000
vn 0.000000 0.000000 1.000000
vn 0.000000 0.000000 1.000000
vn 0.000000 0.000000 1.000000
vn 0.000000 0.000000 1.000000
vn 0.000000 0.000000 1.000000
vn 0.000000 0.000000 1.000000
vn 0.000000 0.000000 1.000000
vn 0.000000 0.000000 1.000000
vn 0.000000 0.000000 1.000000
vn 0.000000 0.000000 1.000000
vn 0.000000 0.000000 1.000000
vn 0.000000 0.000000 1.000000
vn 0.000000 0.000000 1.000000
vn 0.000000 0.000000 1.000000
f 1//1 2//1 3//1
f 2//2 4//2 3//2
f 3//3 4//3 5//3
f 4//4 6//4 5//4
f 5//5 6//5 7//5
f 8//6 9//6 10//6
f 10//7 9//7 11//7
f 7//8 12//8 13//8
f 6//9 12//9 7//9
f 11//10 14//10 15//10
f 9//11 14//11 11//11
f 13//12 16//12 17//12
f 12//13 16//13 13//13
f 15//14 18//14 19//14
f 14//15 18//15 15//15
f 17//16 20//16 21//16
f 16//17 20//17 17//17
f 19//18 22//18 23//18
f 18//19 22//19 19//19
f 21//20 24//20 25//20
f 20//21 24//21 21//21
f 23//22 26//22 27//22
f 22//23 26//23 23//23
f 25//24 28//24 29//24
f 24//25 28//25 25//25
f 27//26 30//26 31//26
f 26//27 30//27 27//27
f 29//28 32//28 33//28
f 28//29 32//29 29//29
f 30//30 34//30 31//30
f 31//31 34//31 35//31
f 33//32 36//32 37//32
f 32//33 36//33 33//33
f 34//34 38//34 35//34
f 35//35 38//35 39//35
f 37//36 40//36 41//36
f 36//37 40//37 37//37
f 38//38 42//38 39//38
f 39//39 42//39 43//39
f 41//40 44//40 45//40
f 40//41 44//41 41//41
f 42//42 46//42 43//42
f 43//43 46//43 47//43
f 45//44 48//44 49//44
f 44//45 48//45 45//45
f 46//46 50//46 47//46
f 47//47 50//47 51//47
f 49//48 52//48 53//48
f 48//49 52//49 49//49
f 50//50 54//50 51//50
f 51//51 54//51 55//51
f 52//52 56//52 53//52
f 53//53 56//53 57//53
f 56//54 8//54 57//54
f 54//55 58//55 55//55
f 55//56 58//56 59//56
f 57//57 8//57 10//57
f 58//58 60//58 59//58
f 59//59 60//59 61//59
f 60//60 62//60 61//60
f 61//61 62//61 63//61
f 62//62 64//62 63//62
f 63//63 64//63 65//63
f 64//64 66//64 65//64
f 65//65 66//65 67//65
f 66//66 68//66 67//66
f 67//67 68//67 1//67
f 68//68 2//68 1//68
f 30//69 26//69 34//69
f 34//70 26//70 38//70
f 14//71 22//71 18//71
f 6//72 16//72 12//72
f 54//73 22//73 64//73
f 64//74 22//74 14//74
f 38//75 22//75 54//75
f 26//76 22//76 38//76
f 66//77 64//77 68//77
f 68//78 64//78 2//78
f 2//79 64//79 4//79
f 16//80 32//80 20//80
f 20//81 32//81 24//81
f 24//82 32//82 28//82
f 4//83 36//83 6//83
f 6//84 36//84 16//84
f 16//85 36//85 32//85
f 58//86 54//86 60//86
f 60//87 54//87 62//87
f 62//88 54//88 64//88
f 40//89 48//89 44//89
f 36//90 52//90 40//90
f 64//91 52//91 4//91
f 4//92 52//92 36//92
f 40//93 52//93 48//93
f 52//94 8//94 56//94
f 42//95 38//95 46//95
f 46//96 38//96 50//96
f 50//97 38//97 54//97
f 8//98 14//98 9//98
f 64//99 14//99 52//99
f 52//100 14//100 8//100
f 35//101 39//101 69//101
f 15//102 70//102 71//102
f 72//103 73//103 41//103
f 15//104 71//104 11//104
f 31//105 74//105 75//105
f 31//106 35//106 74//106
f 19//107 76//107 70//107
f 77//108 59//108 78//108
f 19//109 70//109 15//109
f 27//110 75//110 79//110
f 45//111 72//111 41//111
f 27//112 31//112 75//112
f 23//113 79//113 76//113
f 80//114 72//114 45//114
f 23//115 27//115 79//115
f 23//116 76//116 19//116
f 55//117 59//117 77//117
f 81//118 55//118 77//118
f 82//119 7//119 13//119
f 49//120 80//120 45//120
f 83//121 80//121 49//121
f 84//122 5//122 7//122
f 84//123 7//123 82//123
f 51//124 55//124 81//124
f 85//125 13//125 17//125
f 85//126 82//126 13//126
f 86//127 51//127 81//127
f 53//128 83//128 49//128
f 87//129 3//129 5//129
f 87//130 5//130 84//130
f 88//131 83//131 53//131
f 89//132 17//132 21//132
f 89//133 85//133 17//133
f 47//134 86//134 90//134
f 47//135 51//135 86//135
f 91//136 1//136 3//136
f 91//137 3//137 87//137
f 92//138 21//138 25//138
f 92//139 89//139 21//139
f 57//140 88//140 53//140
f 57//141 93//141 88//141
f 94//142 65//142 67//142
f 94//143 67//143 1//143
f 94//144 1//144 91//144
f 43//145 90//145 69//145
f 95//146 25//146 29//146
f 43//147 47//147 90//147
f 95//148 29//148 33//148
f 95//149 92//149 25//149
f 96//150 65//150 94//150
f 63//151 65//151 96//151
f 10//152 93//152 57//152
f 97//153 95//153 33//153
f 37//154 97//154 33//154
f 98//155 63//155 96//155
f 61//156 63//156 98//156
f 73//157 97//157 37//157
f 39//158 43//158 69//158
f 11//159 71//159 93//159
f 41//160 73//160 37//160
f 11//161 93//161 10//161
f 78//162 61//162 98//162
f 35//163 69//163 74//163
f 59//164 61//164 78//164
f 99//165 82//165 100//165
f 82//166 85//166 100//166
f 100//167 85//167 101//167
f 85//168 89//168 101//168
f 101//169 89//169 102//169
f 93//170 71//170 103//170
f 103//171 71//171 104//171
f 89//172 92//172 102//172
f 102//173 92//173 105//173
f 104//174 70//174 106//174
f 71//175 70//175 104//175
f 92//176 95//176 105//176
f 105//177 95//177 107//177
f 106//178 76//178 108//178
f 70//179 76//179 106//179
f 107//180 97//180 109//180
f 95//181 97//181 107//181
f 108//182 79//182 110//182
f 76//183 79//183 108//183
f 109//184 73//184 111//184
f 97//185 73//185 109//185
f 110//186 75//186 112//186
f 79//187 75//187 110//187
f 111//188 72//188 113//188
f 112//189 74//189 114//189
f 73//190 72//190 111//190
f 75//191 74//191 112//191
f 113//192 80//192 115//192
f 114//193 69//193 116//193
f 72//194 80//194 113//194
f 74//195 69//195 114//195
f 115//196 83//196 117//196
f 80//197 83//197 115//197
f 116//198 90//198 118//198
f 69//199 90//199 116//199
f 117//200 88//200 119//200
f 83//201 88//201 117//201
f 90//202 86//202 118//202
f 119//203 93//203 103//203
f 118//204 86//204 120//204
f 88//205 93//205 119//205
f 86//206 81//206 120//206
f 120//207 81//207 121//207
f 81//208 77//208 121//208
f 121//209 77//209 122//209
f 77//210 78//210 122//210
f 122//211 78//211 123//211
f 78//212 98//212 123//212
f 123//213 98//213 124//213
f 98//214 96//214 124//214
f 124//215 96//215 125//215
f 96//216 94//216 125//216
f 125//217 94//217 126//217
f 94//218 91//218 126//218
f 126//219 91//219 127//219
f 91//220 87//220 127//220
f 127//221 87//221 128//221
f 87//222 84//222 128//222
f 128//223 84//223 99//223
f 84//224 82//224 99//224
f 110//225 103//225 104//225
f 110//226 104//226 106//226
f 110//227 106//227 108//227
f 110//228 112//228 114//228
f 110//229 114//229 116//229
f 110//230 127//230 128//230
f 110//231 128//231 99//231
f 110//232 99//232 109//232
f 110//233 109//233 103//233
f 110//234 116//234 127//234
f 109//235 99//235 100//235
f 109//236 100//236 101//236
f 109//237 101//237 102//237
f 109//238 102//238 105//238
f 109//239 105//239 107//239
f 124//240 125//240 126//240
f 115//241 111//241 113//241
f 121//242 122//242 123//242
f 118//243 120//243 121//243
f 118//244 123//244 124//244
f 118//245 121//245 123//245
f 103//246 109//246 111//246
f 103//247 115//247 117//247
f 103//248 117//248 119//248
f 103//249 111//249 115//249
f 116//250 126//250 127//250
f 116//251 124//251 126//251
f 116//252 118//252 124//252
