# Created by FreeCAD <http://www.freecadweb.org>
v 4.769232 -6.480428 18.577154
v -9.230768 -6.480428 18.577154
v -9.230768 -6.480428 19.577154
v 4.769232 -6.480428 19.577154
v 4.769232 -12.480428 18.577154
v 4.769232 -12.480428 19.577154
v -9.230768 -12.480428 18.577154
v -9.230768 -12.480428 19.577154
v -3.980768 -10.980428 18.577154
v -3.980768 -7.980428 18.577154
v -3.980768 -10.980428 19.577154
v -3.980768 -7.980428 19.577154
v -0.480768 -10.980428 18.577154
v -0.480768 -10.980428 19.577154
v -0.480768 -7.980428 18.577154
v -0.480768 -7.980428 19.577154
vn 0.000000 1.000000 0.000000
vn 0.000000 1.000000 -0.000000
vn 1.000000 0.000000 0.000000
vn 1.000000 0.000000 0.000000
vn 0.000000 -1.000000 0.000000
vn 0.000000 -1.000000 0.000000
vn -1.000000 0.000000 0.000000
vn -1.000000 0.000000 0.000000
vn 1.000000 0.000000 0.000000
vn 1.000000 -0.000000 0.000000
vn 0.000000 1.000000 -0.000000
vn 0.000000 1.000000 0.000000
vn -1.000000 0.000000 0.000000
vn -1.000000 -0.000000 0.000000
vn 0.000000 -1.000000 0.000000
vn 0.000000 -1.000000 0.000000
vn 0.000000 0.000000 -1.000000
vn 0.000000 0.000000 -1.000000
vn 0.000000 0.000000 -1.000000
vn 0.000000 0.000000 -1.000000
vn 0.000000 0.000000 -1.000000
vn 0.000000 0.000000 -1.000000
vn 0.000000 0.000000 -1.000000
vn 0.000000 0.000000 -1.000000
vn 0.000000 0.000000 1.000000
vn 0.000000 0.000000 1.000000
vn -0.000000 0.000000 1.000000
vn 0.000000 0.000000 1.000000
vn 0.000000 0.000000 1.000000
vn 0.000000 0.000000 1.000000
vn 0.000000 0.000000 1.000000
vn 0.000000 0.000000 1.000000
f 1//1 2//1 3//1
f 1//2 3//2 4//2
f 5//3 1//3 4//3
f 5//4 4//4 6//4
f 7//5 5//5 6//5
f 7//6 6//6 8//6
f 2//7 7//7 8//7
f 2//8 8//8 3//8
f 9//9 10//9 11//9
f 11//10 10//10 12//10
f 13//11 9//11 14//11
f 14//12 9//12 11//12
f 15//13 13//13 16//13
f 16//14 13//14 14//14
f 10//15 15//15 12//15
f 12//16 15//16 16//16
f 15//17 1//17 5//17
f 15//18 5//18 13//18
f 7//19 9//19 13//19
f 7//20 13//20 5//20
f 2//21 10//21 9//21
f 2//22 9//22 7//22
f 2//23 1//23 15//23
f 2//24 15//24 10//24
f 4//25 16//25 6//25
f 6//26 16//26 14//26
f 11//27 8//27 14//27
f 14//28 8//28 6//28
f 12//29 3//29 11//29
f 11//30 3//30 8//30
f 4//31 3//31 16//31
f 16//32 3//32 12//32
